# xmcd
#
# Track frame offsets:
#	150
#	22512
#	60407
#	77647
#	94977
#	111425
#	128037
#	144775
#	160802
#	186850
#	204319
#	221078
#	251676
#	273838
#	288479
#	307345
#
# Disc length: 4339 seconds
#
# Revision: 0
# Processed by: cddbd v1.5.2PL0 Copyright (c) Steve Scherf et al.
# Submitted via: EasyCDDAExtractor 16.0.9.1
#
DISCID=e010f110
DTITLE=Various Artist - Progressive Club Rotation Vol.3
DYEAR=1999
DGENRE=Trance
TTITLE0=Dr. Ouzo - Flip Beat (Club Mix)
TTITLE1=Klubbheads - Release The Pressure (Original Mix)
TTITLE2=Pulsedriver IV - Kiss That Sound (Club Radio Mix)
TTITLE3=Central Seven - Missing (The Bronx Radio Remix)
TTITLE4=Avant Garde - Get Down (Radio Mix)
TTITLE5=R.O.O.S. - Body, Mind and Spirit
TTITLE6=Liquid Child - Diving Faces (Vocal Radio Mix)
TTITLE7=DJ Voodoo - El Verano (Radio Mix)
TTITLE8=Free - Kanashimi O Moyashite (Tim Wokan Club Rmx)
TTITLE9=Exit D. - Obsession (Radio Mix)
TTITLE10=The Source - Licence To Dance (Airplay Mix)
TTITLE11=Junk Project - Junkhunter (De Donatis Remix) 
TTITLE12=Don Esteban res. Jack Attack No1 - Bangin (Late Night Mix)
TTITLE13=The Bronx - Wrong Is (Radio Edit)
TTITLE14=DJ Illan - Allez Allez (Train In The House)
TTITLE15=Time Motion Project - Pump This Party (Radio Mix)
EXTD=
EXTT0=
EXTT1=
EXTT2=
EXTT3=
EXTT4=
EXTT5=
EXTT6=
EXTT7=
EXTT8=
EXTT9=
EXTT10=
EXTT11=
EXTT12=
EXTT13=
EXTT14=
EXTT15=
PLAYORDER=
